Coordinates
version=1
nRows=17
nColumns=34
inDegrees=yes

Units are S.I. units (second, meters, Newtons, ...)
If the header above contains a line with 'inDegrees', this indicates whether rotational values are in degrees (yes) or radians (no).

endheader
time	pelvis_tilt	pelvis_list	pelvis_rotation	pelvis_tx	pelvis_ty	pelvis_tz	hip_flexion_r	hip_adduction_r	hip_rotation_r	knee_angle_r	ankle_angle_r	subtalar_angle_r	mtp_angle_r	hip_flexion_l	hip_adduction_l	hip_rotation_l	knee_angle_l	ankle_angle_l	subtalar_angle_l	mtp_angle_l	lumbar_extension	lumbar_bending	lumbar_rotation	arm_flex_r	arm_add_r	arm_rot_r	elbow_flex_r	pro_sup_r	arm_flex_l	arm_add_l	arm_rot_l	elbow_flex_l	pro_sup_l
      0.00000000	     -6.99686103	      0.94772226	     -0.37703188	      1.69759088	      0.96958681	     -0.51517967	     17.10893463	      5.67594427	      5.44413352	     44.59886639	     26.10389340	    -20.56874842	      0.00000000	     28.61818049	     -4.62331439	      0.43991816	     87.55780178	     -2.39129229	    -32.26071568	      0.00000000	    -15.80214961	      6.74081468	      1.78746466	      6.08358570	    -16.95104225	      4.33355324	    100.16174744	     90.69591986	    -20.20183532	    -17.59669994	      8.06762039	     54.03671129	     65.78564788
      0.00833330	     -7.65497120	      3.33164007	      0.52242719	      1.70092683	      0.97713511	     -0.51426704	     17.56232025	      3.68563572	      5.21449410	     43.51602467	     22.95505896	    -18.76847550	      0.00000000	     28.94918975	     -2.39275821	     -1.33634603	     87.57473266	      4.08434292	    -33.61334792	      0.00000000	    -16.66102653	      3.50609064	     -2.09922246	      8.10258691	    -13.71329825	      6.45099811	    101.02069862	     93.01050363	    -26.93187020	    -16.38236549	     -1.96586762	     59.20440367	     72.66997625
      0.01666670	     -7.57192236	      4.32033970	      1.24168916	      1.70341631	      0.98750218	     -0.51512557	     16.38357504	      2.24067095	      4.42061888	     40.29472005	     20.44160127	    -19.79707099	      0.00000000	     28.27183891	     -1.39012591	     -1.96665536	     86.57855448	      9.05986772	    -33.30435408	      0.00000000	    -16.64191914	      2.09648861	     -2.18803562	      7.39063253	    -13.05294043	      4.14803610	    102.22372360	     93.19460951	    -29.21078133	    -18.08474683	     -1.67632119	     61.63629431	     74.16817566
      0.02500000	     -7.56227587	      5.25238539	      2.30628349	      1.70772609	      0.99788351	     -0.51549500	     14.37545803	      0.71112833	      3.67953964	     36.82113729	     19.32830178	    -18.53595021	      0.00000000	     28.65164361	     -0.03454095	     -1.78016209	     86.92604615	      9.35986097	    -34.83943652	      0.00000000	    -16.29275467	      1.04738678	     -2.11902146	      4.57280098	    -12.30284947	      1.63910364	    104.86467953	     95.06937294	    -30.06995005	    -19.43326824	     -2.43736371	     62.98437615	     79.54562089
      0.03333330	     -7.77470773	      6.66301285	      2.59626270	      1.71690210	      1.00742583	     -0.51805197	     12.44599899	     -1.24900207	      3.18365310	     33.43611664	     18.04390264	    -16.99608625	      0.00000000	     28.27285053	      1.37646057	     -2.47838789	     86.08951804	     10.90044023	    -34.86720028	      0.00000000	    -14.95380304	     -0.28672761	     -2.49675650	      3.16102227	    -11.56843734	      0.89464974	    104.81363173	     95.28122884	    -31.38526471	    -19.85269113	     -2.61274653	     64.12378638	     79.95403768
      0.04166670	     -8.36957555	      7.60834074	      3.26207648	      1.71581081	      1.01620470	     -0.51750691	     11.16364421	     -2.73055467	      2.21139596	     30.29246386	     16.05485402	    -15.91623386	      0.00000000	     27.90796369	      2.21863883	     -2.76263226	     85.11389971	     11.65215693	    -35.00000000	      0.00000000	    -13.53053426	     -1.16805128	     -2.98514728	      1.47827983	    -11.27933947	      0.47521512	    105.75804061	     95.45089810	    -31.78875127	    -20.40622381	     -3.19251443	     65.41985722	     80.14266997
      0.05000000	     -8.19203810	      8.56207046	      3.36805020	      1.72593857	      1.02844235	     -0.51773471	      8.95411901	     -4.01679455	      1.67194136	     26.93161676	     13.82187524	    -14.60394584	      0.00000000	     26.11842023	      2.75037200	     -3.32663857	     83.78071243	     10.78238173	    -35.00000000	      0.00000000	    -12.51133262	     -2.36808104	     -2.80346557	     -0.32766566	    -10.47775813	     -0.90427269	    106.62074858	     95.80692936	    -32.43183753	    -20.87852394	     -3.58704765	     67.02757625	     80.55320086
      0.05833330	     -8.78496414	      9.27639621	      3.47999247	      1.72529057	      1.03527940	     -0.51776690	      8.63894809	     -4.89834762	      1.49208227	     24.83996007	     12.53068337	    -13.45154345	      0.00000000	     26.30846811	      3.00119680	     -4.15047554	     83.25312814	     10.48493196	    -35.00000000	      0.00000000	    -11.31952949	     -3.27079094	     -2.73501368	     -1.72347782	    -10.16342724	     -1.47950934	    107.94745326	     96.26217442	    -32.80627216	    -21.46395010	     -3.71060720	     68.50966152	     80.97968638
      0.06666670	     -9.45660434	      9.90341963	      3.07317483	      1.72273972	      1.04180890	     -0.51822894	      8.68580737	     -5.78305230	      1.47294878	     23.09503257	     10.57324034	    -12.50112478	      0.00000000	     26.45663661	      3.33255379	     -5.05973791	     83.14470961	     11.00130254	    -35.00000000	      0.00000000	    -10.35020125	     -3.98359490	     -2.47075047	     -2.89710000	    -10.11313470	     -1.91723808	    108.80625487	     96.69777011	    -33.35880417	    -21.81870729	     -3.80903808	     70.44426121	     81.40110126
      0.07500000	    -10.26232958	     10.37732444	      3.06990332	      1.72418102	      1.05009470	     -0.51872118	      8.92191148	     -6.40243191	      1.45263675	     21.22667412	      8.97964119	    -11.63788143	      0.00000000	     27.04683981	      3.60317179	     -5.66178143	     83.00029916	     11.39165074	    -35.00000000	      0.00000000	     -9.36564852	     -4.50531147	     -2.23104948	     -3.83268620	    -10.06323661	     -1.99701936	    109.85505101	     97.00182289	    -33.92996951	    -22.26303382	     -4.08366977	     72.78431806	     81.68334683
      0.08333330	    -10.95559018	     11.03525326	      2.58868347	      1.72776065	      1.06202326	     -0.52009121	      8.77979417	     -7.30036345	      1.74556483	     19.03674332	      6.67598328	    -10.33484004	      0.00000000	     27.39858653	      4.04616441	     -6.62159113	     82.61078289	     10.45517144	    -35.00000000	      0.00000000	     -8.19127002	     -5.30118995	     -1.98462307	     -4.99695366	     -9.58748356	     -2.31687116	    110.39661371	     97.42445612	    -34.83408245	    -22.31016003	     -4.58490602	     75.53119309	     82.08245539
      0.09166670	    -11.39260145	     11.85916381	      2.29703266	      1.73506269	      1.07110390	     -0.52154267	      8.09147381	     -8.38942656	      1.46653292	     16.91650659	      4.67349186	     -8.88173482	      0.00000000	     26.99319478	      4.70332262	     -7.63649923	     82.01156429	      9.84639628	    -35.00000000	      0.00000000	     -7.04398731	     -6.30270679	     -2.08179621	     -7.18723072	     -9.22563529	     -2.30783131	    110.40655291	     97.86552415	    -35.99795485	    -22.15207226	     -5.10459418	     77.31170673	     82.46533823
      0.10000000	    -11.95227608	     12.51854044	      2.61519075	      1.72663162	      1.08387667	     -0.52277862	      8.04585917	     -9.28133161	      1.21518582	     14.99841459	      2.49678279	     -8.02454038	      0.00000000	     27.27275454	      5.44831564	     -8.11082328	     81.29744207	      9.40344578	    -35.00000000	      0.00000000	     -6.44452318	     -7.05644326	     -2.35712671	     -8.53377874	     -9.09074982	     -2.19121443	    110.70038152	     98.12554064	    -35.99733468	    -22.16400782	     -5.48129704	     78.84593326	     82.70814872
      0.10833330	    -12.62192869	     12.90348193	      2.63401279	      1.72605872	      1.08504948	     -0.52299326	      8.46927241	     -9.80791332	      1.42918734	     13.63407602	      0.38903692	     -7.19534328	      0.00000000	     27.74644226	      5.78032849	     -8.47041715	     81.20203044	     10.22443522	    -35.00000000	      0.00000000	     -5.81161375	     -7.71093586	     -2.25247381	     -9.96344346	     -9.19084965	     -2.34513427	    111.09724648	     98.43302344	    -36.54189018	    -22.10183232	     -6.19145712	     81.65152650	     83.04822146
      0.11666670	    -13.17115497	     13.28830076	      2.09452053	      1.72691599	      1.09728282	     -0.52379275	      9.25283741	    -10.26065395	      0.92971667	     12.69333275	     -3.94243262	     -7.26962336	      0.00000000	     27.74515167	      6.14734662	     -9.12080054	     80.12492527	     10.93921467	    -35.00000000	      0.00000000	     -5.31936996	     -8.25808778	     -1.87277342	    -10.58690005	     -9.03648851	     -2.63217581	    110.82269079	     98.86187529	    -36.83857662	    -21.38004977	     -7.08247918	     83.90737089	     83.63666619
      0.12500000	    -13.42530479	     13.46121905	      1.59446911	      1.72724386	      1.10266806	     -0.52459038	      9.88911523	    -10.43597858	     -0.56134920	     11.73246512	     -8.07415996	     -6.89185608	      0.00000000	     27.61230030	      6.21834062	     -9.66280162	     79.46321391	     11.33777697	    -35.00000000	      0.00000000	     -4.92376935	     -8.50556777	     -1.48679129	    -11.39436610	     -9.37387304	     -2.27176468	    110.29762744	     99.08879844	    -36.87229834	    -20.93727626	     -7.45605555	     85.04181393	     83.95287563
      0.13333330	    -13.67887583	     13.44008558	      0.95080689	      1.72874921	      1.10963478	     -0.52478336	     10.46201457	    -10.33273238	     -2.03107857	     10.89723149	    -11.39016108	     -7.20699527	      0.00000000	     27.08787184	      6.15552945	     -9.95931196	     78.60452581	     12.39003164	    -35.00000000	      0.00000000	     -4.36176790	     -8.51829442	     -1.08934121	    -11.44212457	     -9.61799548	     -1.90929310	    109.57486238	     99.34486531	    -36.94325757	    -20.35860159	     -7.64618406	     86.06212502	     84.39981120
